<svg id="Слой_1" data-name="Слой 1" xmlns="http://www.w3.org/2000/svg" viewBox="0 0 24 24"><defs><style>.cls-1{fill:#090909;}.cls-2{fill:#fff;}</style></defs><title>united_logo</title><path class="cls-1" d="M12,23.63A11.63,11.63,0,1,1,23.63,12,11.64,11.64,0,0,1,12,23.63Zm1.82-3.12,6.88-1.38V16.84L19,16.47V4.22l-7,1.38V7.9l1.68.36V15a1.58,1.58,0,0,1-.18.78,1.45,1.45,0,0,1-.48.53,2.39,2.39,0,0,1-.72.33,3.54,3.54,0,0,1-.85.11,1.76,1.76,0,0,1-1.4-.47,2.92,2.92,0,0,1-.41-1.79V4.22l-7,1.38V7.9l1.68.36v6.36a10,10,0,0,0,.28,2.46,4.53,4.53,0,0,0,.93,1.86,3.89,3.89,0,0,0,1.7,1.13,7.36,7.36,0,0,0,2.45.36,4.81,4.81,0,0,0,3.08-.91,5.21,5.21,0,0,0,1-1Z"/><path class="cls-2" d="M12,.75a11.25,11.25,0,0,1,9.08,17.89v-2.1l-.59-.13-1.09-.24V3.77L18.5,4,12.29,5.18l-.61.12V8.2l.59.13,1.09.23V15a1.21,1.21,0,0,1-.13.6,1.07,1.07,0,0,1-.36.4,1.83,1.83,0,0,1-.6.27,2.89,2.89,0,0,1-.76.1A1.49,1.49,0,0,1,10.4,16a2.48,2.48,0,0,1-.33-1.55V3.77L9.18,4l-6.1,1.2A11.25,11.25,0,0,1,12,.75M2.36,6.21v2L3,8.33,4,8.56v6.06a9.91,9.91,0,0,0,.29,2.56,4.79,4.79,0,0,0,1,2A4.19,4.19,0,0,0,7.2,20.42a7.53,7.53,0,0,0,2.57.38,5.12,5.12,0,0,0,3.31-1c.13-.1.25-.21.37-.32V21l.89-.18,5.95-1.2A11.24,11.24,0,0,1,2.36,6.21M12,0A12,12,0,1,0,24,12,12,12,0,0,0,12,0Zm-.49,17.11a3.93,3.93,0,0,0,1-.12,2.69,2.69,0,0,0,.84-.38,2,2,0,0,0,.59-.66,2,2,0,0,0,.22-1V8l-1.68-.37V5.91l6.22-1.23v12.1l1.68.36v1.68L14.2,20.05v-2.8H14a4.3,4.3,0,0,1-1.42,2,4.41,4.41,0,0,1-2.84.82,7.12,7.12,0,0,1-2.32-.33,3.59,3.59,0,0,1-1.54-1A4.31,4.31,0,0,1,5.05,17a9.82,9.82,0,0,1-.26-2.37V8L3.11,7.59V5.91L9.32,4.68v9.8a3.16,3.16,0,0,0,.51,2,2.07,2.07,0,0,0,1.68.6Z"/></svg>